<svg width="34" height="35" viewBox="0 0 34 35" fill="none" xmlns="http://www.w3.org/2000/svg">
<path d="M18.1918 11.2465L23.8165 16.8712C23.8746 16.9293 23.9207 16.9982 23.9522 17.0741C23.9836 17.15 23.9998 17.2313 23.9998 17.3134C23.9998 17.3955 23.9836 17.4769 23.9522 17.5527C23.9207 17.6286 23.8746 17.6975 23.8165 17.7556L18.1918 23.3803C18.0745 23.4976 17.9154 23.5635 17.7496 23.5635C17.5838 23.5635 17.4247 23.4976 17.3074 23.3803C17.1902 23.2631 17.1243 23.104 17.1243 22.9382C17.1243 22.7723 17.1902 22.6133 17.3074 22.496L21.8658 17.9384H9.62497C9.45922 17.9384 9.30025 17.8725 9.18305 17.7553C9.06585 17.6381 9 17.4792 9 17.3134C9 17.1477 9.06585 16.9887 9.18305 16.8715C9.30025 16.7543 9.45922 16.6884 9.62497 16.6884H21.8658L17.3074 12.1308C17.1902 12.0136 17.1243 11.8545 17.1243 11.6887C17.1243 11.5228 17.1902 11.3638 17.3074 11.2465C17.4247 11.1292 17.5838 11.0634 17.7496 11.0634C17.9154 11.0634 18.0745 11.1292 18.1918 11.2465Z" fill="#2B4808"/>
<rect x="0.4" y="0.463354" width="33.2" height="33.2" rx="16.6" stroke="#2B4808" stroke-width="0.8"/>
</svg>
