<svg width="20" height="21" viewBox="0 0 20 21" fill="none" xmlns="http://www.w3.org/2000/svg">
<path d="M11.2759 2.52935C11.564 2.72429 11.7872 3.00106 11.9166 3.32398L11.8666 3.31564L13.3333 6.89898L13.4 6.94898L17.2583 7.23231C17.4861 7.24759 17.7087 7.30772 17.9132 7.40926C18.1177 7.51079 18.3001 7.65173 18.45 7.82398C18.6044 7.99935 18.7222 8.20389 18.7963 8.42553C18.8705 8.64716 18.8995 8.8814 18.8816 9.11442C18.8637 9.34743 18.7994 9.57452 18.6923 9.78226C18.5853 9.99 18.4377 10.1742 18.2583 10.324L15.3 12.824V12.8823L16.25 16.6656C16.283 16.8049 16.2998 16.9475 16.3 17.0906C16.3038 17.3228 16.259 17.5531 16.1686 17.7669C16.0782 17.9807 15.9441 18.1733 15.775 18.3323C15.4967 18.6071 15.1336 18.7797 14.7448 18.8221C14.356 18.8645 13.9642 18.7741 13.6333 18.5656L10.3833 16.524H10.3L6.96663 18.5656C6.63658 18.7751 6.2454 18.8669 5.85661 18.8261C5.46783 18.7852 5.10426 18.6142 4.82496 18.3406C4.6558 18.1817 4.52172 17.9891 4.43132 17.7753C4.34091 17.5614 4.29617 17.3311 4.29996 17.099C4.30057 16.9531 4.31734 16.8078 4.34996 16.6656L5.24996 12.874V12.8156L2.29163 10.3156C2.09595 10.1529 1.93852 9.94909 1.8305 9.71865C1.72248 9.48821 1.66653 9.23681 1.66663 8.98231C1.66879 8.55947 1.82255 8.15143 2.09996 7.83231C2.24983 7.66006 2.43226 7.51913 2.63676 7.41759C2.84127 7.31605 3.06382 7.25592 3.29163 7.24064L7.14996 6.95731L7.21663 6.90731L8.68329 3.32398C8.81271 3.00106 9.03587 2.72429 9.32401 2.52935C9.61215 2.33441 9.95207 2.23022 10.3 2.23022C10.6478 2.23022 10.9878 2.33441 11.2759 2.52935Z" fill="#FEBB02"/>
</svg>
