<svg width="15" height="13" viewBox="0 0 15 13" fill="none" xmlns="http://www.w3.org/2000/svg">
<path d="M9.19177 0.371508L14.8165 5.99625C14.8746 6.05429 14.9207 6.12322 14.9522 6.19909C14.9836 6.27496 14.9998 6.35629 14.9998 6.43842C14.9998 6.52055 14.9836 6.60187 14.9522 6.67774C14.9207 6.75361 14.8746 6.82254 14.8165 6.88058L9.19177 12.5053C9.0745 12.6226 8.91544 12.6885 8.7496 12.6885C8.58375 12.6885 8.4247 12.6226 8.30743 12.5053C8.19016 12.3881 8.12428 12.229 8.12428 12.0632C8.12428 11.8973 8.19016 11.7383 8.30743 11.621L12.8658 7.06339L0.624971 7.06339C0.459219 7.06339 0.300255 6.99754 0.18305 6.88034C0.0658451 6.76313 0 6.60417 0 6.43842C0 6.27266 0.0658451 6.1137 0.18305 5.99649C0.300255 5.87929 0.459219 5.81345 0.624971 5.81345L12.8658 5.81345L8.30743 1.25584C8.19016 1.13857 8.12428 0.979519 8.12428 0.813674C8.12428 0.647829 8.19016 0.488777 8.30743 0.371508C8.4247 0.254237 8.58375 0.188354 8.7496 0.188354C8.91544 0.188354 9.0745 0.254237 9.19177 0.371508Z" fill="#2B4808"/>
</svg>
