<svg width="34" height="35" viewBox="0 0 34 35" fill="none" xmlns="http://www.w3.org/2000/svg">
<g opacity="0.4">
<path d="M15.8082 22.8802L10.1835 17.2555C10.1254 17.1974 10.0793 17.1285 10.0478 17.0526C10.0164 16.9767 10.0002 16.8954 10.0002 16.8133C10.0002 16.7312 10.0164 16.6498 10.0478 16.574C10.0793 16.4981 10.1254 16.4292 10.1835 16.3711L15.8082 10.7464C15.9255 10.6291 16.0846 10.5632 16.2504 10.5632C16.4162 10.5632 16.5753 10.6291 16.6926 10.7464C16.8098 10.8637 16.8757 11.0227 16.8757 11.1886C16.8757 11.3544 16.8098 11.5134 16.6926 11.6307L12.1342 16.1883L24.375 16.1883C24.5408 16.1883 24.6997 16.2542 24.817 16.3714C24.9342 16.4886 25 16.6475 25 16.8133C25 16.979 24.9342 17.138 24.817 17.2552C24.6997 17.3724 24.5408 17.4383 24.375 17.4383L12.1342 17.4383L16.6926 21.9959C16.8098 22.1131 16.8757 22.2722 16.8757 22.438C16.8757 22.6039 16.8098 22.7629 16.6926 22.8802C16.5753 22.9975 16.4162 23.0634 16.2504 23.0634C16.0846 23.0634 15.9255 22.9975 15.8082 22.8802Z" fill="#2B4808"/>
<rect x="33.6" y="33.6634" width="33.2" height="33.2" rx="16.6" transform="rotate(-180 33.6 33.6634)" stroke="#2B4808" stroke-width="0.8"/>
</g>
</svg>
