<svg width="56" height="56" viewBox="0 0 56 56" fill="none" xmlns="http://www.w3.org/2000/svg">
<path d="M28 3.50085C22.9876 3.50677 18.1821 5.50057 14.6378 9.0449C11.0935 12.5892 9.09968 17.3947 9.09377 22.4071C9.08777 26.5033 10.4258 30.4883 12.9025 33.7509C12.9025 33.7509 13.4181 34.4298 13.5024 34.5277L28 51.6259L42.5046 34.5191C42.5802 34.428 43.0975 33.7509 43.0975 33.7509L43.0992 33.7457C45.5748 30.4846 46.9121 26.5014 46.9063 22.4071C46.9004 17.3947 44.9066 12.5892 41.3622 9.0449C37.8179 5.50057 33.0125 3.50677 28 3.50085ZM28 29.2821C26.6403 29.2821 25.3111 28.8789 24.1805 28.1235C23.0499 27.368 22.1687 26.2943 21.6483 25.0381C21.128 23.7818 20.9918 22.3995 21.2571 21.0659C21.5224 19.7322 22.1772 18.5072 23.1387 17.5457C24.1001 16.5843 25.3252 15.9295 26.6588 15.6642C27.9924 15.3989 29.3747 15.5351 30.631 16.0554C31.8872 16.5758 32.9609 17.457 33.7164 18.5876C34.4718 19.7181 34.875 21.0474 34.875 22.4071C34.8727 24.2298 34.1477 25.9771 32.8589 27.266C31.57 28.5548 29.8227 29.2798 28 29.2821Z" fill="#252D1C"/>
</svg>
