<svg width="20" height="21" viewBox="0 0 20 21" fill="none" xmlns="http://www.w3.org/2000/svg">
<path d="M9.68728 9.71913H10.3123M9.68728 10.3441H10.3123M3.85394 9.71913H4.47894M3.85394 10.3441H4.47894M15.5206 9.71913H16.1456M15.5206 10.3441H16.1456M10.8333 10.0317C10.8333 10.4919 10.4602 10.865 9.99998 10.865C9.53974 10.865 9.16665 10.4919 9.16665 10.0317C9.16665 9.57144 9.53974 9.19835 9.99998 9.19835C10.4602 9.19835 10.8333 9.57144 10.8333 10.0317ZM4.99998 10.0317C4.99998 10.4919 4.62688 10.865 4.16665 10.865C3.70641 10.865 3.33331 10.4919 3.33331 10.0317C3.33331 9.57144 3.70641 9.19835 4.16665 9.19835C4.62688 9.19835 4.99998 9.57144 4.99998 10.0317ZM16.6666 10.0317C16.6666 10.4919 16.2935 10.865 15.8333 10.865C15.3731 10.865 15 10.4919 15 10.0317C15 9.57144 15.3731 9.19835 15.8333 9.19835C16.2935 9.19835 16.6666 9.57144 16.6666 10.0317Z" stroke="#272D37" stroke-width="1.67" stroke-linecap="round"/>
</svg>
