<svg width="55" height="56" viewBox="0 0 55 56" fill="none" xmlns="http://www.w3.org/2000/svg">
<g clip-path="url(#clip0_1_1862)">
<path d="M1.96582 40.331C1.96582 33.5585 4.65618 27.0634 9.44506 22.2745C14.2339 17.4857 20.729 14.7953 27.5015 14.7953C34.274 14.7953 40.7691 17.4857 45.558 22.2745C50.3469 27.0634 53.0373 33.5585 53.0373 40.331H1.96582ZM1.96582 50.1524H53.0373H1.96582ZM27.5015 14.7953V4.97388V14.7953ZM21.6087 4.97388H33.3944H21.6087Z" fill="#252D1C"/>
<path d="M27.5015 14.7953C20.729 14.7953 14.2339 17.4857 9.44506 22.2745C4.65618 27.0634 1.96582 33.5585 1.96582 40.331H53.0372C53.0372 33.5585 50.3469 27.0634 45.558 22.2745C40.7691 17.4857 34.274 14.7953 27.5015 14.7953ZM27.5015 14.7953V4.97388M1.96582 50.1524H53.0372M21.6087 4.97388H33.3944" stroke="#252D1C" stroke-width="3.92857" stroke-linecap="round" stroke-linejoin="round"/>
</g>
<defs>
<clipPath id="clip0_1_1862">
<rect width="55" height="55" fill="white" transform="translate(0 0.0633545)"/>
</clipPath>
</defs>
</svg>
