<svg width="16" height="15" viewBox="0 0 16 15" fill="none" xmlns="http://www.w3.org/2000/svg">
<path d="M4.84103 0.793419L14.5761 1.70263C14.6767 1.71196 14.7744 1.74101 14.8636 1.78813C14.9529 1.83524 15.032 1.89949 15.0965 1.9772C15.1609 2.05492 15.2094 2.14457 15.2392 2.24103C15.2689 2.33749 15.2794 2.43888 15.27 2.53939L14.3607 12.2744C14.3418 12.4774 14.243 12.6645 14.0861 12.7946C13.9291 12.9248 13.7269 12.9872 13.524 12.9682C13.321 12.9493 13.1339 12.8505 13.0038 12.6936C12.8737 12.5366 12.8112 12.3345 12.8302 12.1315L13.5676 4.24278L1.98526 13.8464C1.82842 13.9764 1.62635 14.0389 1.4235 14.0199C1.22064 14.001 1.03362 13.9022 0.903581 13.7454C0.773538 13.5885 0.711124 13.3865 0.730069 13.1836C0.749015 12.9808 0.847769 12.7937 1.0046 12.6637L12.587 3.06009L4.69808 2.32399C4.49511 2.30503 4.30799 2.20622 4.17787 2.0493C4.04776 1.89238 3.98531 1.69019 4.00427 1.48723C4.02322 1.28426 4.12203 1.09714 4.27895 0.967025C4.43588 0.83691 4.63806 0.774463 4.84103 0.793419Z" fill="white"/>
</svg>
