<svg width="402" height="402" viewBox="0 0 402 402" fill="none" xmlns="http://www.w3.org/2000/svg">
<path d="M201 401.063C311.457 401.063 401 311.52 401 201.063C401 90.6065 311.457 1.06348 201 1.06348C90.5431 1.06348 1 90.6065 1 201.063C1 311.52 90.5431 401.063 201 401.063Z" stroke="#2B4808" stroke-opacity="0.06" stroke-width="0.468384" stroke-linecap="round" stroke-linejoin="round"/>
<path d="M201 385.147C302.666 385.147 385.083 302.73 385.083 201.063C385.083 99.3971 302.666 16.9802 201 16.9802C99.3337 16.9802 16.9169 99.3971 16.9169 201.063C16.9169 302.73 99.3337 385.147 201 385.147Z" stroke="#2B4808" stroke-opacity="0.06" stroke-width="0.468384" stroke-linecap="round" stroke-linejoin="round"/>
<path d="M201 369.224C293.872 369.224 369.16 293.936 369.16 201.063C369.16 108.191 293.872 32.9028 201 32.9028C108.127 32.9028 32.8395 108.191 32.8395 201.063C32.8395 293.936 108.127 369.224 201 369.224Z" stroke="#2B4808" stroke-opacity="0.12" stroke-width="0.468384" stroke-linecap="round" stroke-linejoin="round"/>
<path d="M201 353.307C285.082 353.307 353.244 285.145 353.244 201.063C353.244 116.982 285.082 48.8198 201 48.8198C116.918 48.8198 48.7565 116.982 48.7565 201.063C48.7565 285.145 116.918 353.307 201 353.307Z" stroke="#2B4808" stroke-opacity="0.12" stroke-width="0.468384" stroke-linecap="round" stroke-linejoin="round"/>
<path d="M201 337.384C276.288 337.384 337.321 276.351 337.321 201.063C337.321 125.775 276.288 64.7424 201 64.7424C125.712 64.7424 64.6792 125.775 64.6792 201.063C64.6792 276.351 125.712 337.384 201 337.384Z" stroke="#2B4808" stroke-opacity="0.25" stroke-width="0.468384" stroke-linecap="round" stroke-linejoin="round"/>
<path d="M201 321.468C267.497 321.468 321.404 267.561 321.404 201.063C321.404 134.566 267.497 80.6592 201 80.6592C134.503 80.6592 80.5958 134.566 80.5958 201.063C80.5958 267.561 134.503 321.468 201 321.468Z" stroke="#2B4808" stroke-opacity="0.39" stroke-width="0.468384" stroke-linecap="round" stroke-linejoin="round"/>
<path d="M201 305.545C258.703 305.545 305.481 258.767 305.481 201.063C305.481 143.36 258.703 96.582 201 96.582C143.296 96.582 96.5186 143.36 96.5186 201.063C96.5186 258.767 143.296 305.545 201 305.545Z" stroke="#2B4808" stroke-opacity="0.39" stroke-width="0.468384" stroke-linecap="round" stroke-linejoin="round"/>
<path d="M201 289.628C249.913 289.628 289.565 249.976 289.565 201.063C289.565 152.151 249.913 112.499 201 112.499C152.087 112.499 112.435 152.151 112.435 201.063C112.435 249.976 152.087 289.628 201 289.628Z" stroke="#2B4808" stroke-width="0.468384" stroke-linecap="round" stroke-linejoin="round"/>
<path d="M201 273.705C241.119 273.705 273.642 241.183 273.642 201.064C273.642 160.945 241.119 128.422 201 128.422C160.881 128.422 128.358 160.945 128.358 201.064C128.358 241.183 160.881 273.705 201 273.705Z" stroke="#2B4808" stroke-opacity="0.7" stroke-width="0.468384" stroke-linecap="round" stroke-linejoin="round"/>
<path d="M201 257.789C232.328 257.789 257.725 232.392 257.725 201.063C257.725 169.735 232.328 144.338 201 144.338C169.672 144.338 144.275 169.735 144.275 201.063C144.275 232.392 169.672 257.789 201 257.789Z" stroke="#2B4808" stroke-opacity="0.7" stroke-width="0.468384" stroke-linecap="round" stroke-linejoin="round"/>
<path d="M201 241.866C223.535 241.866 241.802 223.598 241.802 201.063C241.802 178.529 223.535 160.261 201 160.261C178.465 160.261 160.198 178.529 160.198 201.063C160.198 223.598 178.465 241.866 201 241.866Z" stroke="#2B4808" stroke-width="0.468384" stroke-linecap="round" stroke-linejoin="round"/>
<path d="M201 225.949C214.744 225.949 225.886 214.807 225.886 201.064C225.886 187.32 214.744 176.178 201 176.178C187.256 176.178 176.114 187.32 176.114 201.064C176.114 214.807 187.256 225.949 201 225.949Z" stroke="#2B4808" stroke-width="0.468384" stroke-linecap="round" stroke-linejoin="round"/>
</svg>
