<svg width="56" height="56" viewBox="0 0 56 56" fill="none" xmlns="http://www.w3.org/2000/svg">
<path d="M26.8521 28.1362C26.8521 27.6803 27.0332 27.2432 27.3555 26.9208C27.6779 26.5985 28.115 26.4174 28.5709 26.4174C29.0267 26.4174 29.4639 26.2364 29.7862 25.914C30.1085 25.5917 30.2896 25.1545 30.2896 24.6987C30.2896 24.2428 30.1085 23.8057 29.7862 23.4833C29.4639 23.161 29.0267 22.9799 28.5709 22.9799C27.2034 22.9799 25.8918 23.5232 24.9249 24.4902C23.9579 25.4572 23.4146 26.7687 23.4146 28.1362C23.4146 28.592 23.5957 29.0292 23.918 29.3515C24.2404 29.6739 24.6775 29.8549 25.1334 29.8549C25.5892 29.8549 26.0264 29.6739 26.3487 29.3515C26.671 29.0292 26.8521 28.592 26.8521 28.1362ZM31.4355 4.64661C24.2923 4.64661 18.1163 8.8289 14.7407 14.9454C14.1907 15.9422 13.345 16.8085 12.3207 17.5006C7.94588 20.4614 5.0813 25.6841 5.0813 31.5737C5.0813 40.6166 11.8807 48.1883 20.55 48.1883C21.2925 48.1883 22.0236 48.1333 22.7386 48.0233C24.7425 47.717 26.7921 48.0204 28.6213 48.8941C31.1961 50.1609 34.0726 50.6865 36.9291 50.4121C39.7855 50.1378 42.5093 49.0742 44.796 47.3405C47.0826 45.6067 48.8419 43.2711 49.8771 40.5947C50.9124 37.9183 51.1827 35.0068 50.658 32.1856C50.4967 31.3692 50.4781 30.531 50.603 29.7083C50.8115 28.4502 50.9158 27.1771 50.9146 25.9018C50.9146 14.3197 42.3438 4.64661 31.4355 4.64661ZM40.0292 28.7091C40.0292 30.1386 39.7477 31.5541 39.2006 32.8748C38.6536 34.1955 37.8518 35.3955 36.8409 36.4063C35.8301 37.4171 34.6301 38.2189 33.3095 38.7659C31.9888 39.313 30.5733 39.5945 29.1438 39.5945C27.7143 39.5945 26.2988 39.313 24.9781 38.7659C23.6574 38.2189 22.4575 37.4171 21.4466 36.4063C20.4358 35.3955 19.634 34.1955 19.087 32.8748C18.5399 31.5541 18.2584 30.1386 18.2584 28.7091C18.2584 25.8221 19.4052 23.0534 21.4466 21.012C23.4881 18.9705 26.2568 17.8237 29.1438 17.8237C32.0308 17.8237 34.7995 18.9705 36.8409 21.012C38.8824 23.0534 40.0292 25.8221 40.0292 28.7091Z" fill="#252D1C"/>
</svg>
