<svg width="20" height="21" viewBox="0 0 20 21" fill="none" xmlns="http://www.w3.org/2000/svg">
<path d="M9.99996 2.28857C8.35179 2.28857 6.74062 2.77732 5.37021 3.69299C3.9998 4.60867 2.9317 5.91016 2.30097 7.43288C1.67024 8.9556 1.50521 10.6312 1.82675 12.2477C2.1483 13.8642 2.94197 15.349 4.10741 16.5145C5.27284 17.6799 6.7577 18.4736 8.37421 18.7951C9.99072 19.1167 11.6663 18.9516 13.189 18.3209C14.7117 17.6902 16.0132 16.6221 16.9289 15.2517C17.8446 13.8813 18.3333 12.2701 18.3333 10.6219C18.3333 8.41177 17.4553 6.29215 15.8925 4.72935C14.3297 3.16655 12.2101 2.28857 9.99996 2.28857ZM16.5833 11.6386C16.4219 11.5345 16.2737 11.4114 16.1416 11.2719C16.0533 11.1765 15.9777 11.0701 15.9166 10.9552C15.8765 10.8837 15.8537 10.8038 15.85 10.7219V10.6136C15.885 10.5025 15.959 10.4078 16.0583 10.3469C16.245 10.2388 16.4522 10.1707 16.6666 10.1469C16.6666 10.3052 16.6666 10.4719 16.6666 10.6302C16.664 10.968 16.6361 11.305 16.5833 11.6386ZM10.475 3.98024C10.5698 4.08638 10.651 4.20396 10.7166 4.33024C10.8334 4.59248 10.893 4.87653 10.8916 5.16357C10.8949 5.3347 10.8638 5.50475 10.8 5.66357C10.7508 5.78518 10.6703 5.89157 10.5666 5.97191C10.4079 6.07551 10.2372 6.15945 10.0583 6.22191C9.61179 6.3856 9.17973 6.5863 8.76663 6.82191C8.51793 6.97423 8.30023 7.17214 8.12496 7.40524C7.92772 7.66975 7.80928 7.98464 7.7833 8.31357V8.43857C7.77341 8.80448 7.88799 9.16292 8.1083 9.45524C8.39158 9.79657 8.78235 10.0316 9.21663 10.1219C9.52856 10.1953 9.84655 10.2399 10.1666 10.2552C10.2652 10.2589 10.3606 10.2907 10.4416 10.3469C10.4416 10.3469 10.4833 10.3469 10.5 10.5052V10.6386C10.4903 10.8698 10.454 11.0991 10.3916 11.3219C10.325 11.5886 10.2333 11.8969 10.1666 12.2386C10.1092 12.5688 10.0814 12.9034 10.0833 13.2386C10.0826 13.5969 10.1189 13.9544 10.1916 14.3052C10.2034 14.416 10.2034 14.5278 10.1916 14.6386V14.7719L10.1166 14.7302C9.96377 14.6346 9.82847 14.5134 9.71663 14.3719C9.56095 14.1861 9.41626 13.9913 9.2833 13.7886C9.1833 13.6636 9.07496 13.4719 8.9333 13.2552C8.78071 12.9997 8.58956 12.7692 8.36663 12.5719C8.03477 12.3092 7.65974 12.1061 7.2583 11.9719C6.97453 11.8764 6.69632 11.7651 6.42496 11.6386C6.29386 11.5768 6.17301 11.4953 6.06663 11.3969C5.99163 11.3302 5.96663 11.2969 5.9583 11.2719V11.1552C5.96147 11.0098 5.98966 10.8661 6.04163 10.7302C6.08089 10.6152 6.14013 10.508 6.21663 10.4136C6.3583 10.2469 6.52496 10.1136 6.7333 9.87191C6.97176 9.59135 7.13772 9.25656 7.21663 8.89691C7.27946 8.63776 7.31025 8.37189 7.3083 8.10524C7.30511 7.29787 7.009 6.5191 6.47496 5.91357C6.28538 5.71553 6.06947 5.54448 5.8333 5.40524C7.01374 4.45646 8.48553 3.94428 9.99996 3.95524L10.475 3.98024ZM14.7166 15.3386C13.5148 16.502 11.9196 17.1712 10.2475 17.2133C8.57529 17.2554 6.94839 16.6674 5.68957 15.5659C4.43074 14.4645 3.63197 12.93 3.45174 11.2671C3.27151 9.60411 3.723 7.93416 4.71663 6.58857C4.94822 6.65327 5.1546 6.78698 5.3083 6.97191C5.58698 7.28308 5.73866 7.68755 5.7333 8.10524C5.73222 8.25106 5.71545 8.39634 5.6833 8.53857C5.66153 8.66442 5.60691 8.78229 5.52496 8.88024C5.44163 8.98024 5.26663 9.13024 5.04163 9.38024C4.82678 9.62316 4.66247 9.90646 4.5583 10.2136C4.4384 10.5247 4.37627 10.8551 4.37496 11.1886C4.37383 11.4003 4.40474 11.6111 4.46663 11.8136C4.58356 12.1383 4.78492 12.4259 5.04996 12.6469C5.25132 12.8148 5.47239 12.9575 5.7083 13.0719C6.0833 13.2552 6.4333 13.3636 6.71663 13.4719C6.94398 13.5451 7.15789 13.6549 7.34996 13.7969C7.45484 13.8974 7.54465 14.0124 7.61663 14.1386C7.72496 14.2969 7.84163 14.5052 7.99996 14.7219C8.22123 15.0625 8.47521 15.3807 8.7583 15.6719C8.93807 15.8554 9.14287 16.0125 9.36663 16.1386C9.62156 16.2823 9.90744 16.3624 10.2 16.3719C10.4479 16.3751 10.6931 16.3209 10.9166 16.2136C11.2317 16.0548 11.4799 15.7889 11.6166 15.4636C11.7297 15.2007 11.7837 14.9163 11.775 14.6302C11.7724 14.4033 11.7473 14.1772 11.7 13.9552C11.649 13.717 11.6238 13.4739 11.625 13.2302C11.6233 12.9901 11.6429 12.7503 11.6833 12.5136C11.725 12.2802 11.8083 12.0136 11.8833 11.6802C11.9834 11.3333 12.0366 10.9746 12.0416 10.6136C12.0499 10.511 12.0499 10.4079 12.0416 10.3052C12.0029 9.84363 11.7845 9.41568 11.4333 9.11357C11.1049 8.84288 10.6996 8.68251 10.275 8.65524C9.99199 8.64661 9.71156 8.59893 9.44163 8.51357L9.36663 8.47191V8.38858C9.36663 8.30524 9.36663 8.30524 9.44996 8.22191C9.69787 8.02611 9.98064 7.87907 10.2833 7.78857C10.7122 7.65136 11.1234 7.46395 11.5083 7.23024C11.8404 6.98105 12.0994 6.64718 12.2583 6.26357C12.4156 5.9034 12.4978 5.51493 12.5 5.12191C12.4974 4.88075 12.4695 4.64054 12.4166 4.40524C13.3454 4.76057 14.1829 5.31917 14.8678 6.04013C15.5528 6.76109 16.0677 7.62614 16.375 8.57191C15.9781 8.64696 15.5991 8.79684 15.2583 9.01358C14.8497 9.28262 14.5534 9.69154 14.425 10.1636C14.3682 10.3385 14.3401 10.5214 14.3416 10.7052C14.3451 11.0267 14.4221 11.3431 14.5666 11.6302C14.7578 12.0081 15.0244 12.3427 15.35 12.6136C15.6061 12.8421 15.8854 13.0432 16.1833 13.2136C15.8352 14.0094 15.3372 14.7308 14.7166 15.3386Z" fill="#3BB537"/>
</svg>
