<svg width="55" height="56" viewBox="0 0 55 56" fill="none" xmlns="http://www.w3.org/2000/svg">
<g clip-path="url(#clip0_1_1851)">
<path fill-rule="evenodd" clip-rule="evenodd" d="M36.1242 9.22986C37.4008 9.2299 38.6521 9.58537 39.7381 10.2565C40.8241 10.9275 41.7017 11.8877 42.2728 13.0294L45.449 19.3796C46.0082 19.1505 46.5582 18.903 47.099 18.6371C47.643 18.3655 48.2726 18.321 48.8494 18.5135C49.4261 18.7061 49.9028 19.1198 50.1744 19.6638C50.4461 20.2078 50.4906 20.8374 50.298 21.4142C50.1055 21.9909 49.6917 22.4676 49.1478 22.7392C48.5969 22.9844 48.0431 23.2228 47.4863 23.4542L49.6886 27.8611C50.1666 28.8166 50.4153 29.8704 50.4151 30.9388V36.7299C50.4165 37.6974 50.213 38.6542 49.818 39.5374C49.423 40.4206 48.8455 41.2101 48.1234 41.854V44.7507C48.1234 45.6624 47.7612 46.5367 47.1166 47.1814C46.4719 47.826 45.5976 48.1882 44.6859 48.1882C43.7742 48.1882 42.8999 47.826 42.2552 47.1814C41.6106 46.5367 41.2484 45.6624 41.2484 44.7507V43.6049H13.7484V44.7507C13.7484 45.6624 13.3862 46.5367 12.7416 47.1814C12.0969 47.826 11.2226 48.1882 10.3109 48.1882C9.39921 48.1882 8.52487 47.826 7.88021 47.1814C7.23556 46.5367 6.87339 45.6624 6.87339 44.7507V41.854C5.46631 40.5936 4.58173 38.7649 4.58173 36.7299V30.9365C4.58215 29.8697 4.83087 28.8175 5.30818 27.8634L7.49214 23.4909C6.93985 23.2571 6.39214 23.0096 5.8536 22.7415C5.31238 22.4663 4.90098 21.9894 4.70807 21.4137C4.51517 20.838 4.55621 20.2096 4.82235 19.6638C4.95678 19.3944 5.14298 19.1541 5.37033 18.9566C5.59767 18.7592 5.86169 18.6085 6.1473 18.5132C6.43292 18.4178 6.73452 18.3797 7.03487 18.401C7.33523 18.4222 7.62845 18.5025 7.89777 18.6371C8.4386 18.9053 8.99089 19.1505 9.54777 19.3796L12.724 13.0317C13.2948 11.8896 14.1723 10.9289 15.2583 10.2574C16.3442 9.58593 17.5957 9.23011 18.8726 9.22986H36.1242ZM17.1859 29.8549C16.2742 29.8549 15.3999 30.217 14.7552 30.8617C14.1106 31.5063 13.7484 32.3807 13.7484 33.2924C13.7484 34.204 14.1106 35.0784 14.7552 35.723C15.3999 36.3677 16.2742 36.7299 17.1859 36.7299C18.0976 36.7299 18.9719 36.3677 19.6166 35.723C20.2612 35.0784 20.6234 34.204 20.6234 33.2924C20.6234 32.3807 20.2612 31.5063 19.6166 30.8617C18.9719 30.217 18.0976 29.8549 17.1859 29.8549ZM37.8109 29.8549C36.8992 29.8549 36.0249 30.217 35.3802 30.8617C34.7356 31.5063 34.3734 32.3807 34.3734 33.2924C34.3734 34.204 34.7356 35.0784 35.3802 35.723C36.0249 36.3677 36.8992 36.7299 37.8109 36.7299C38.7226 36.7299 39.5969 36.3677 40.2416 35.723C40.8862 35.0784 41.2484 34.204 41.2484 33.2924C41.2484 32.3807 40.8862 31.5063 40.2416 30.8617C39.5969 30.217 38.7226 29.8549 37.8109 29.8549ZM36.1242 13.8132H18.8726C18.4954 13.8131 18.124 13.9062 17.7914 14.0841C17.4588 14.262 17.1752 14.5192 16.9659 14.833L16.8238 15.0805L13.9134 20.8967C17.4609 21.9601 22.2413 22.9799 27.4984 22.9799C32.4071 22.9799 36.8965 22.0907 40.3546 21.1076L41.0811 20.8967L38.173 15.0805C38.0043 14.7432 37.755 14.4527 37.4472 14.2349C37.1394 14.017 36.7826 13.8784 36.4084 13.8315L36.1265 13.8132H36.1242Z" fill="#252D1C"/>
</g>
<defs>
<clipPath id="clip0_1_1851">
<rect width="55" height="55" fill="white" transform="translate(0 0.0633545)"/>
</clipPath>
</defs>
</svg>
